<svg width="110" height="40" viewBox="0 0 110 40" fill="none" xmlns="http://www.w3.org/2000/svg">
<path d="M85.2735 39.9808C85.4142 39.9808 85.5549 39.9104 85.5741 39.8401L93.0585 18.4487C93.2376 17.9434 93.9477 17.9306 94.1396 18.4295L102.494 39.8209C102.52 39.9168 102.667 39.9808 102.75 39.9808H109.646C109.761 39.9808 109.857 39.9296 109.908 39.8529C109.94 39.7953 109.94 39.7377 109.908 39.6738L93.8773 0.172714C93.8326 0.044775 93.6854 0.00639343 93.5703 0.00639343C93.4551 0.00639343 93.308 0.051172 93.2632 0.172714L78.1153 39.6674C78.0833 39.7313 78.0641 39.8017 78.1025 39.8657C78.1473 39.9424 78.2688 39.9872 78.4224 39.9872H85.2671L85.2735 39.9808Z" fill="white"/>
<path d="M82.9962 11.8983C82.9962 0.102351 71.7504 0 69.4987 0H50.1863C49.553 0 49.3867 0.863585 49.9688 1.10667C52.566 2.18135 54.8369 3.82536 56.6984 6.00032C56.9799 6.32656 57.2485 6.6656 57.5044 7.01103C57.6132 7.15816 57.7859 7.24772 57.965 7.24772H63.6519H69.4987C70.7013 7.24772 75.3966 7.4972 75.3966 11.8983C75.3966 16.2994 71.1491 16.4977 69.4987 16.4977H62.0078C61.656 16.4977 61.3937 16.8047 61.4385 17.1502C61.5473 18.0713 61.6112 18.9989 61.6112 19.9456C61.6112 25.2615 59.8649 30.2383 56.6984 33.9549C56.5385 34.1404 56.3722 34.3259 56.2058 34.505C56.1099 34.6138 56.0523 34.7481 56.0523 34.8952V39.533C56.0523 39.7313 56.3018 39.9808 56.5513 39.9808H63.0953C63.396 39.9808 63.6455 39.7313 63.6455 39.533V24.4171C63.6455 24.0972 63.9013 23.8414 64.2212 23.8414H67.5732C67.7971 23.8414 68.0018 23.9693 68.0977 24.174L75.2431 39.6801C75.2943 39.8273 75.5949 39.9808 75.7421 39.9808H76.4009C76.6056 39.9808 76.7976 39.8593 76.8807 39.6674L77.1558 39.0532L79.6442 32.6371C79.8169 32.1893 79.7977 31.6904 79.5994 31.2554C78.3456 28.5879 77.0982 25.9076 75.8892 23.1889C75.7612 22.8946 75.8892 22.5428 76.1898 22.4212C79.9448 20.8796 82.9898 17.7067 82.9898 11.8855L82.9962 11.8983Z" fill="white"/>
<path d="M42.0046 39.3475C54.7665 39.3475 60.5813 29.2851 60.5813 19.9392C60.5813 10.5933 54.7665 0.633293 42.0046 0.633293C37.5716 0.633293 33.6566 1.8743 30.5477 4.24116C30.1064 4.5738 30.343 5.27746 30.8996 5.27746H31.0787C31.4241 5.27746 31.744 5.44378 31.9359 5.73165C32.1278 6.01311 32.1662 6.37134 32.0382 6.69119L24.234 26.2722C26.6584 34.4603 33.292 39.3475 41.9982 39.3475H42.0046ZM42.0046 7.11978C50.0072 7.11978 53.6534 13.843 53.6534 20.0928C53.6534 26.3426 49.649 32.9186 42.0046 32.9186C33.9637 32.9186 30.3047 26.2722 30.3047 20.0928C30.3047 13.9133 33.9637 7.11978 42.0046 7.11978Z" fill="white"/>
<path d="M17.7666 39.7377L30.7652 7.10059C30.9187 6.72317 30.6372 6.31377 30.2278 6.31377H23.7733C23.5366 6.31377 23.3192 6.4609 23.236 6.68479L17.8178 20.7772C17.6323 21.257 16.9542 21.2762 16.7495 20.7964L7.87057 0.300656C7.81939 0.102351 7.62109 0 7.37161 0H0.571674C0.175065 0 -0.029637 0.300656 0.123889 0.601311L16.8135 39.7377C16.9158 39.9104 17.1141 40 17.306 40C17.4979 40 17.6899 39.9104 17.7602 39.7377H17.7666Z" fill="white"/>
</svg>
